<svg xmlns="http://www.w3.org/2000/svg" viewBox="0 0 41.8 48.42"><defs><style>.cls-1{fill:none;stroke:#333;stroke-linecap:round;stroke-linejoin:round;stroke-width:2px;}</style></defs><title>Asset 10</title><g id="Layer_2" data-name="Layer 2"><g id="Layer_2-2" data-name="Layer 2"><path class="cls-1" d="M17.57,12.94A12.12,12.12,0,0,1,15.43,6.7a5.7,5.7,0,1,1,11.4,0,12.16,12.16,0,0,1-2.1,6.19" id="id_112" style="stroke: rgb(0, 0, 0);"></path><path class="cls-1" d="M24.8,13a12,12,0,0,1,4.83-3.88,5.7,5.7,0,1,1,4.05,10.66,12.14,12.14,0,0,1-6,.35" id="id_113" style="stroke: rgb(0, 0, 0);"></path><path class="cls-1" d="M20.89,25.12a11.63,11.63,0,0,0,1.22,4.94,5.7,5.7,0,0,0,10-5.58,12,12,0,0,0-4.65-4.26" id="id_114" style="stroke: rgb(0, 0, 0);"></path><path class="cls-1" d="M17.49,13a12,12,0,0,0-4.86-3.92A5.7,5.7,0,1,0,8.58,19.73a12.23,12.23,0,0,0,6.23.3" id="id_115" style="stroke: rgb(0, 0, 0);"></path><path class="cls-1" d="M20.71,24.92a12.3,12.3,0,0,1-2.57,5.81A5.81,5.81,0,1,1,9.49,23a12.09,12.09,0,0,1,5-3" id="id_116" style="stroke: rgb(0, 0, 0);"></path><circle class="cls-1" cx="21.13" cy="18.4" r="6.52" id="id_117" style="stroke: rgb(0, 0, 0);"></circle><line class="cls-1" x1="20.95" y1="25.42" x2="20.95" y2="47.42" id="id_118" style="stroke: rgb(0, 0, 0);"></line><line class="cls-1" x1="32.87" y1="38.19" x2="20.9" y2="44.71" id="id_119" style="stroke: rgb(0, 0, 0);"></line><path class="cls-1" d="M34.25,42.62c-4,2.2-8.93,1.34-10.52,1a.48.48,0,0,1-.35-.64c.55-1.54,2.48-6.11,6.52-8.31s8.94-1.34,10.52-1a.5.5,0,0,1,.36.65C40.22,35.84,38.29,40.42,34.25,42.62Z" id="id_120" style="stroke: rgb(0, 0, 0);"></path><line class="cls-1" x1="8.94" y1="38.19" x2="20.9" y2="44.71" id="id_121" style="stroke: rgb(0, 0, 0);"></line><path class="cls-1" d="M7.55,42.62c4.05,2.2,8.94,1.34,10.52,1a.49.49,0,0,0,.36-.64c-.55-1.54-2.48-6.11-6.53-8.31S3,33.3,1.38,33.66a.49.49,0,0,0-.35.65C1.58,35.84,3.51,40.42,7.55,42.62Z" id="id_122" style="stroke: rgb(0, 0, 0);"></path></g></g></svg>