<svg xmlns="http://www.w3.org/2000/svg" viewBox="0 0 41.8 47.39"><defs><style>.cls-1{fill:none;stroke:#333;stroke-linecap:round;stroke-linejoin:round;stroke-width:2px;}</style></defs><title>Asset 3</title><g id="Layer_2" data-name="Layer 2"><g id="Layer_2-2" data-name="Layer 2"><line class="cls-1" x1="20.95" y1="27.39" x2="20.95" y2="46.39" id="id_131" style="stroke: rgb(0, 0, 0);"></line><line class="cls-1" x1="32.87" y1="33.16" x2="20.9" y2="39.68" id="id_132" style="stroke: rgb(0, 0, 0);"></line><path class="cls-1" d="M34.25,37.59c-4,2.2-8.93,1.34-10.52,1a.48.48,0,0,1-.35-.64c.55-1.54,2.48-6.11,6.52-8.31s8.94-1.34,10.52-1a.5.5,0,0,1,.36.65C40.22,30.81,38.29,35.39,34.25,37.59Z" id="id_133" style="stroke: rgb(0, 0, 0);"></path><line class="cls-1" x1="8.94" y1="33.16" x2="20.9" y2="39.68" id="id_134" style="stroke: rgb(0, 0, 0);"></line><path class="cls-1" d="M7.55,37.59c4.05,2.2,8.94,1.34,10.52,1a.49.49,0,0,0,.36-.64c-.55-1.54-2.48-6.11-6.53-8.31S3,28.27,1.38,28.63a.49.49,0,0,0-.35.65C1.58,30.81,3.51,35.39,7.55,37.59Z" id="id_135" style="stroke: rgb(0, 0, 0);"></path><path class="cls-1" d="M31,6V16.37A10.39,10.39,0,0,1,20.62,26.76h0A10.39,10.39,0,0,1,10.23,16.37V6" id="id_136" style="stroke: rgb(0, 0, 0);"></path><path class="cls-1" d="M20.62,1C26.35,1,31,3.53,31,6.66s-4.65,5.66-10.38,5.66S10.23,9.79,10.23,6.66A4.14,4.14,0,0,1,12,3.5a8.61,8.61,0,0,1,1.7-1.06" id="id_137" style="stroke: rgb(0, 0, 0);"></path><path class="cls-1" d="M20.39,1c-3.25,0-4.61,1.28-4.61,3s2.64,3,5.89,3c0,0,2.76,0,4.26-1.51" id="id_138" style="stroke: rgb(0, 0, 0);"></path></g></g></svg>