<?xml version="1.0" encoding="utf-8"?>
<!-- Generator: Adobe Illustrator 24.0.2, SVG Export Plug-In . SVG Version: 6.00 Build 0)  -->
<svg version="1.1" xmlns="http://www.w3.org/2000/svg" xmlns:xlink="http://www.w3.org/1999/xlink" x="0px" y="0px"
	 viewBox="0 0 512 512" style="enable-background:new 0 0 512 512;" xml:space="preserve">
<style type="text/css">
	.st0{fill:#D9FFF2;}
	.st1{fill-rule:evenodd;clip-rule:evenodd;fill:#FFE5E1;}
	.st2{fill-rule:evenodd;clip-rule:evenodd;fill:#F9B7B7;}
	.st3{fill-rule:evenodd;clip-rule:evenodd;fill:#003509;}
</style>
<g id="Layer_2">
	<circle class="st0" cx="256.0887" cy="256.5089" r="248.873"/>
</g>
<g id="Layer_1">
	<path class="st1" d="M271.9512,191.5815c-10.4403-15.4939-24.2502-35.8437-24.8141-55.2358
		c-0.1168-3.9922,0.0423-7.9971,0.2665-11.9868c0.1815-3.1873,0.4518-6.4079,0.945-9.5614c0.3739-2.4068,0.934-4.8001,1.5545-7.1533
		c2.0477-7.7759,11.4373-34.2718,21.9085-16.4418c7.4583,12.6979-0.3435,31.8743-1.8798,44.7151
		c-0.0753,0.6497,0.3464-1.2614,0.5051-1.898c0.4395-1.7639,0.7394-2.9927,1.1125-4.6792
		c0.8121-3.7097,1.7161-7.3855,2.7317-11.0473c2.8078-10.1176,11.0968-34.271,26.3707-32.3527
		c4.628,0.5816,6.1228,8.5081,6.4084,12.0118c1.1133,13.6284-8.1029,23.0671-9.6642,35.4634
		c-0.1848,1.4661,2.0088-2.1606,2.9999-3.2541c1.9394-2.1471,3.7477-4.4055,5.7531-6.4947
		c5.7582-6.0023,14.554-16.8876,23.5565-18.1173c5.0412-0.6865,1.2207,12.3933,0.5524,13.9592
		c-2.3476,5.5192-5.9286,10.143-9.9315,14.5514c-0.4522,0.4983-4.5273,4.2325-4.3264,4.9549
		c0.2534,0.8913,1.6319-0.8891,2.4529-1.3163c2.527-1.3236,5.0789-2.6069,7.6274-3.8903
		c4.0476-2.0384,24.9092-15.2878,28.6418-7.0881c4.9643,10.9128-7.5898,28.7708-14.3167,35.9101
		C316.1106,188.4112,271.9512,191.5815,271.9512,191.5815z"/>
	<g transform="matrix(0.999724,0.0234924,-0.0234924,0.999724,2.1869,-2.03218)">
		<path class="st2" d="M262.9822,161.4717c-2.106,10.4009-0.6539,5.0889-1.9756,2.1751c-0.5601-1.202-1.1402-2.3917-1.697-3.5942
			c-8.033-17.8709-9.4716-41.4589-1.7637-56.7641c1.4772-2.9292,5.6-5.2521,6.1983-5.3063
			c5.0099-0.2756,2.7159,7.4536,2.519,11.1389c-0.0072,0.1428-0.0149,0.2855-0.0187,0.4278
			c0.1205,0.8438,0.2454,1.5843,0.3608,2.4071c1.7829,13.0699-0.2141,26.5768-0.1634,39.9349l1.0033,11.9424
			c0.5725,2.3226,1.2123,5.0467,1.7771,7.6542c0.0613-0.6877,0.1264-1.3751,0.1911-2.0595
			c2.1323-21.9744,2.82-47.1026,17.8676-63.108c1.6734-1.7804,2.7492-3.645,4.3087-3.4836c0.232-0.2458,0.4675-0.4887,0.7107-0.7254
			c2.8064-2.6884,6.9711-3.3723,5.3048,7.4655c-2.8871,18.2108-8.5775,36.0572-14.7969,53.1388
			c9.3476-15.8189,20.1381-31.2879,35.6943-41.6706c4.0142-2.6068,0.4171,7.7543-2.9373,12.189
			c-7.7622,10.2706-16.237,19.925-23.6436,30.5304c0,0,10.3642-7.7719,18.834-13.589c0,0-0.0478-0.0911,5.6249-4.3705
			c3.3443-2.4852,6.4944-6.2793,10.7555-8.3528c1.2503-0.6107-2.3915,1.4381,7.4865-3.6564
			c2.3222-1.1974,4.5194-1.417,5.3157-1.1463c5.5363,2.1547-0.8586,12.6513-5.926,17.4682
			c-12.214,11.6137-24.972,22.5243-40.2925,31.308c-6.1437,3.5229-12.6211,6.4215-19.1609,9.113c0,0-5.392,1.5369,1.9525-3.5894
			c14.0926-9.9569,28.4437-19.6974,41.9784-30.7963c1.4766-1.208,3.9699-3.2844-1.244,0.7519
			c-11.7669,8.9761-24.0992,17.4637-37.0069,24.2922l-4.5887,2.5031c-0.6458,0.6232-1.3545,1.1852-1.9814,1.604
			c-0.4706,1.0786-0.931,2.1527-1.3683,3.1708c-0.5166,1.0437-2.5081,3.462-0.2728-5.1627
			c0.0049-0.0251,0.0094-0.0506,0.0177-0.0762c0.1424-0.5462,0.3016-1.1364,0.478-1.7714l-0.0107-0.0023l-0.0039-0.0033
			c-0.2981,0.3696-2.9575,3.5483-1.0453-3.6112c1.0187-4.2906-0.2949-2.9354-0.2949-2.9354
			c0.1041-1.529,1.083-4.5096,0.6841-10.6078c-0.1779,3.7724-1.0343,8.4552-1.796,11.294c1.1968,6.3477,1.2354,9.6445-2.7927-0.8369
			c0,0-2.0468-3.9867-4.0397-8.2234c0.5228,1.9192,1.7557,8.132-1.1082-0.6666L262.9822,161.4717z M338.3752,134.6849
			c-4.5709,0.7725,2.9388-0.2205-1.8958,4.8689c0,0-18.1685,19.2956-30.3357,29.013c-7.5457,5.9799-15.4512,11.4689-23.6024,16.5808
			c19.8867-10.638,38.5227-23.5975,53.4593-40.4934c0.4414-0.5008,0.8711-1.0105,1.2776-1.5397
			c0.388-0.5025,0.7605-1.0177,1.1025-1.555C340.3561,138.465,340.4056,134.4282,338.3752,134.6849z M273.2896,178.4513
			c0.7623-2.9416,2.1172-8.1236,3.1718-12.041c1.0196-3.6944,2.2882-7.3452,3.1223-11.0497
			c0.9105-4.0528,0.9926-4.2667,1.3924-5.8564c3.0701-11.9565,7.1606-23.2701,10.5496-36.184
			c0.6215-2.4526,1.0083-6.1563,0.8533-5.9639c-1.2613,1.7475-1.1814,2.4285-1.2494,3.1164
			c-1.4264,12.5466-7.3618,25.1141-11.1391,38.1259c0,0-3.1624,13.7509-5.1511,23.2749c-1.036,4.1852-1.348,3.8181-1.9066,7.2546
			C273.0371,178.9231,273.1536,178.6953,273.2896,178.4513z M278.4045,169.0295c0.0338-0.1273,0.0659-0.2368,0.0926-0.3284
			c2.0728-7.0753,2.7377-11.1718,3.9661-16.3381c0,0,0.5956-1.9138-0.3395,0.9274c-1.1109,3.4118-2.586,8.1938-2.586,8.1938
			c-0.2655,1.2146-0.5353,2.4264-0.7902,3.6434c-0.076,0.3872-0.1485,0.774-0.2172,1.164c-1.4197,8.4004-0.3857,3.608-0.0331,2.4095
			l-0.5067,0.8903C278.1369,169.3823,278.2751,169.195,278.4045,169.0295z M290.7034,162.6891
			c-1.8131,2.3194-3.7422,5.2321-3.7422,5.2321C288.7933,165.472,291.5507,161.617,290.7034,162.6891z M314.9482,153.1871
			c-4.4693,3.5843-11.3488,8.4915-11.3488,8.4915c-2.4578,2.2897-4.4534,4.0798-4.4534,4.0798
			c1.6582-1.2393,3.3203-2.4792,4.9736-3.729C309.2041,158.1583,317.0706,151.4626,314.9482,153.1871z M307.5619,135.3248
			c-0.6062,0.5981-1.2043,1.1991-1.7911,1.8132c-6.3755,6.6615-11.5262,14.2483-17.0795,21.7777
			c-0.6151,0.8332-1.1801,1.7079-1.7646,2.5632c0.7056-0.8526,1.4224-1.6958,2.1396-2.539
			c6.5598-7.6555,13.5409-15.0323,18.5962-23.7136C307.6302,135.2614,307.5976,135.293,307.5619,135.3248z M263.2159,160.292
			c-0.0593,0.3039-0.1181,0.6112-0.1806,0.919c0.4201,1.1871,0.7027,1.8697,0.2257-0.6751L263.2159,160.292z M293.756,121.2537
			c-3.6641,11.5418-7.728,22.9098-10.4043,34.7505l-0.0986,0.4495c4.1872-11.3409,7.853-22.9009,10.4321-34.7211
			C293.6852,121.7326,294.0533,120.2913,293.756,121.2537z M262.1205,154.4742c-0.6909-3.543-1.2495-6.1616-1.2004-5.655
			c0.2659,2.565,0.7311,5.867,1.0534,8.0613C262.0241,156.0805,262.0742,155.2771,262.1205,154.4742z M329.5424,140.1648
			c-3.5722,2.1098-5.3116,6.5053-8.4214,9.8727c0.747-0.6399,1.4949-1.2769,2.2306-1.9264
			C326.7401,145.0927,329.9234,139.9185,329.5424,140.1648z M334.8501,137.6846c-2.5182,0.382-1.5031,1.5581-4.2017,6.1319
			c-1.1556,1.9574-6.1108,7.8214,0.2003,0.4916C333.663,141.0399,335.3056,137.6227,334.8501,137.6846z M275.3142,146.709
			c-0.4882,2.1093-0.9183,4.2273-1.2509,6.368C274.5524,150.3889,275.4733,146.0405,275.3142,146.709z M280.4099,139.6565
			c-1.1038,4.1813-2.5298,10.4244-2.5298,10.4244C280.2712,141.1927,281.078,137.1711,280.4099,139.6565z M256.7995,114.683
			c-0.8385,4.9011-1.1295,10.1825-0.8118,14.0879c0.1886,2.3172,0.3387,4.6378,0.4945,6.9443
			c0.5402,4.4054,1.3338,8.7939,2.2652,13.1368c0,0,0.4364,1.5371,0.802,2.673
			C256.6436,139.3624,255.9885,126.9854,256.7995,114.683z M257.2302,129.1047c0.272,6.405,1.2944,12.7518,2.5912,19.0362
			l-0.5544-6.722C258.1217,135.8227,257.1551,126.9364,257.2302,129.1047z M259.9033,133.6555
			c0.2134,8.1107,3.0423,23.035,0.2426,1.7371C260.0428,134.586,259.8924,133.1028,259.9033,133.6555z M311.9883,130.4883
			 M283.7172,114.6047c-3.1085,5.909-5.1428,12.3208-6.9315,18.7759l-0.2007,0.7507c2.3459-7.5565,6.6014-18.0057,6.6014-18.0057
			C283.9934,113.9001,283.8709,114.3202,283.7172,114.6047z M259.7316,108.5251c-2.5618,7.9643-2.3715,16.5672-0.939,24.9149
			c0,0-0.1617-6.9162,0.2295-12.9949C259.0221,120.4451,259.8397,108.2094,259.7316,108.5251z M314.756,126.2628 M290.7283,125.3977
			c1.9807-5.8279,4.5119-11.6916,3.4143-17.275c0,0-0.0106-0.2155-0.0144,0.0723c-0.1691,5.589-2.279,10.9254-3.8005,16.4002
			C290.5203,124.825,290.6498,125.1,290.7283,125.3977c-0.1359,0.3929-0.2646,0.7852-0.3937,1.1775
			C288.7634,131.6467,291.3481,127.769,290.7283,125.3977z M317.3385,125.5551c0.4284,0.0259,1.4035,2.4338,1.6028-2.952
			C318.9413,122.6031,316.1862,125.4925,317.3385,125.5551z M260.2863,119.9394 M288.2428,110.5359
			c0.1732-0.1551,0.3543-0.2618,0.546-0.298c1.505-0.1454,1.6315-4.4488-1.0704,1.3707L288.2428,110.5359
			c-1.0523,0.9357-1.6758,3.5516-0.5244,1.0726c2.7019-5.8195,2.5754-1.516,1.0704-1.3707L288.2428,110.5359z M295.9757,101.5032
			c-5.0446,0.9428-2.0858,2.7256-1.1881,4.5197c0.9567,1.9272,0.9569,5.1962,0.9569,5.1962
			C296.8138,105.0283,298.224,101.2286,295.9757,101.5032z M262.0951,105.6982c-0.3739,2.148-1.1432,6.4141-0.5815,4.3332
			C262.3986,106.9252,262.2967,104.5891,262.0951,105.6982z M291.6293,105.1857 M258.4328,105.7047
			c1.1419-2.3963,2.6646-4.925,2.2625-4.4958c-0.9361,1.0383-1.6349,2.2526-2.187,3.5518c0.0096,0.2439-0.0052,0.4973-0.0274,0.67
			C258.4677,105.5135,258.4521,105.6073,258.4328,105.7047z M262.8691,99.7953c2.2496,0.3216,4.3122,6.7095,2.221,0.6155
			C264.6904,99.2499,261.6157,99.7533,262.8691,99.7953z M262.7829,101.5465c-0.0429-0.1166-0.0735-0.1739-0.0807-0.1733
			c-0.0545,0.0229-0.105,0.049-0.1556,0.0752C262.6389,101.4894,262.7167,101.521,262.7829,101.5465z"/>
	</g>
	<g transform="matrix(0.954993,-0.296629,0.446849,1.43862,-43.4549,-14.2584)">
		<path class="st3" d="M232.8395,187.3401c-0.6672-0.8762-1.2642-1.8778-1.7289-3.0195
			c-2.5317-6.2403-3.6746-13.0063-3.8527-19.5825c0,0,0.7391-1.1158,1.1769-1.1049c1.3735,0.1212,2.2678,1.9698,3.7151,3.449
			c6.6481,6.8882,9.7886,16.6209,7.9878,25.5709c0,0-0.1679-0.0567-0.4624-0.1762c-0.0159,0.0614-0.0292,0.1154-0.0468,0.1662
			c0.0391,0.0472,0.06,0.0706,0.06,0.0706s0.2508,4.0552-3.4262-0.2269c-1.1161-1.3018-2.1005-2.7221-2.9315-4.2092
			C233.1574,187.9622,232.9909,187.6497,232.8395,187.3401z"/>
	</g>
	<g transform="matrix(1.27903,-0.0464759,0.0363129,0.99934,-35.4987,5.57932)">
		<path class="st3" d="M233.5735,197.2735c0.5816-3.2453,6.1359-5.4098,6.9513-5.9403c0.3717-0.2447,0.7517-0.4763,1.1357-0.7014
			c1.3465-0.7844,2.7511-1.4517,4.1919-2.0171c4.6707-1.8314,9.635-2.4111,14.5537-2.3284c5.8035,0.101,17.603,0.9643,1.8387,7.9821
			c-4.6836,2.0848-11.1576,3.5399-12.0929,3.7977c-5.2142,1.4485-5.4143,2.1367-12.644,1.6693
			c-3.3599-0.2155-3.1626,0.2322-3.1626,0.2322s-2.4455-1.1702-0.8138-2.1707
			C233.5315,197.7968,233.5137,197.5149,233.5735,197.2735z M267.4592,188.781 M267.4546,188.7672 M267.4363,188.7131
			 M267.4274,188.6889 M267.4137,188.6481"/>
	</g>
	<path class="st1" d="M200.1061,255.6918c-17.6397,6.1559-40.8333,14.3348-59.731,9.9471
		c-3.8907-0.9031-7.723-2.0757-11.5249-3.3074c-3.0358-0.986-6.0818-2.0667-9.006-3.3463
		c-2.2326-0.9737-4.4046-2.1238-6.5226-3.3226c-6.9993-3.9588-30.2348-19.7796-10.3278-25.3708
		c14.1775-3.9825,30.7381,8.4408,42.766,13.1932c0.6091,0.2381-1.1319-0.6561-1.7072-0.9712
		c-1.5938-0.8739-2.7059-1.4767-4.2422-2.266c-3.381-1.7292-6.7057-3.5388-9.989-5.4528
		c-9.0703-5.2891-30.3202-19.4493-24.5798-33.7329c1.7393-4.3277,9.7855-3.757,13.2469-3.142
		c13.4631,2.3903,20.2466,13.7041,31.8379,18.3681c1.3709,0.5512-1.5786-2.4931-2.3836-3.7295
		c-1.5833-2.4216-3.3074-4.7447-4.8179-7.2159c-4.3399-7.0953-12.6293-18.3711-11.5287-27.3906
		c0.6184-5.0497,12.296,1.972,13.6407,3.0168c4.7405,3.6745,8.3008,8.3139,11.5465,13.3065
		c0.3667,0.5643,2.9415,5.4554,3.6911,5.4444c0.9263-0.0178-0.4446-1.8041-0.6489-2.7072c-0.6375-2.7803-1.2292-5.5746-1.8218-8.366
		c-0.942-4.433-8.4485-27.9789,0.431-29.5026c11.8168-2.0249,25.8936,14.6589,31.0867,22.9808
		C208.2737,212.1792,200.1061,255.6918,200.1061,255.6918z"/>
	<g transform="matrix(0.999724,0.0234924,-0.0234924,0.999724,2.1869,-2.03218)">
		<path class="st2" d="M176.1515,257.3386c9.5234,4.6826,4.7553,1.9268,1.6014,2.4642c-1.3053,0.2359-2.6032,0.494-3.9081,0.7265
			c-19.326,3.223-42.504-1.3867-55.3451-12.7341c-2.4573-2.1738-3.6548-6.752-3.5549-7.3442
			c1.0079-4.9153,7.8988-0.731,11.413,0.3969c0.136,0.0438,0.2724,0.0871,0.4088,0.1275c0.8468,0.0977,1.5948,0.1652,2.4196,0.2634
			c13.0939,1.6001,25.6481,6.9672,38.5801,10.3165l11.8043,2.0679c2.3919,0.0369,5.1895,0.1112,7.8545,0.228
			c-0.649-0.234-1.2978-0.4713-1.9426-0.7083c-20.7092-7.6523-44.8362-14.7094-56.4867-33.3335
			c-1.2964-2.0711-2.8256-3.5863-2.2728-5.0535c-0.1794-0.2865-0.3541-0.576-0.521-0.8716
			c-1.8861-3.3981-1.4877-7.5997,8.5695-3.2313c16.8772,7.4246,32.6888,17.4679,47.6264,27.828
			c-12.9208-13.0641-25.1356-27.4349-31.2196-45.1206c-1.4997-4.5449,7.6051,1.5696,11.0406,5.9417
			c7.9583,10.1191,15.1392,20.7715,23.5115,30.632c0,0-4.8795-12.0003-8.3508-21.6714c0,0-0.1006,0.0231-2.7959-6.5518
			c-1.5527-3.8663-4.4205-7.8781-5.3421-12.5263c-0.2724-1.3645,0.7827,2.6789-1.6314-8.1704
			c-0.5672-2.5503-0.2207-4.7311,0.2434-5.4325c3.492-4.8057,12.0167,4.049,15.3865,10.1747
			c8.1242,14.7669,15.4302,29.8805,20.0277,46.9318c1.8442,6.8373,2.9997,13.8393,3.9391,20.8484c0,0,0.1148,5.6056-2.9747-2.8013
			c-6.0444-16.1617-11.8137-32.5186-19.1046-48.4314c-0.7922-1.7356-2.1662-4.6748,0.411,1.3942
			c5.6874,13.6631,10.7585,27.7487,14.0789,41.9692l1.2532,5.0741c0.4386,0.7834,0.8016,1.6118,1.0477,2.3245
			c0.923,0.7293,1.8445,1.4477,2.7182,2.1299c0.8782,0.7651,2.7103,3.306-5.0622-1.0497c-0.0231-0.0109-0.0466-0.0222-0.0694-0.0365
			c-0.4918-0.2766-1.0223-0.581-1.5912-0.9129l-0.0053,0.0099l-0.0042,0.0031c0.2819,0.3818,2.6791,3.7628-3.7584,0.0921
			c-3.8898-2.0766-2.9134-0.4617-2.9134-0.4617c-1.4526-0.4897-4.0859-2.1943-10.0847-3.3599
			c3.6027,1.1318,7.9139,3.1511,10.4652,4.6097c6.4433,0.4579,9.6418,1.259-1.5197,2.4881c0,0-4.3764,0.9655-8.9806,1.815
			c1.9891-0.0175,8.311,0.3704-0.9261,0.9023L176.1515,257.3386z M169.4249,177.6116c-0.4157,4.6174,0.5344-2.8982,4.2263,3.0723
			c0,0,14.039,22.4792,20.3416,36.7177c3.8638,8.8186,7.1615,17.8605,10.0315,27.0439
			c-5.2294-21.9381-13.0218-43.2579-25.562-62.0011c-0.3718-0.554-0.7561-1.0997-1.1642-1.6274
			c-0.3875-0.5029-0.7909-0.9943-1.2233-1.4619C173.5845,176.6575,169.6933,175.5828,169.4249,177.6116z M195.1945,251.6898
			c-2.6506-1.4859-7.3175-4.1142-10.8378-6.1309c-3.3134-1.9256-6.5213-4.0813-9.8918-5.8303
			c-3.6879-1.9113-3.8738-2.0453-5.3094-2.8362c-10.7825-6.0108-20.6835-12.8445-32.3104-19.4071
			c-2.2137-1.2254-5.6973-2.5415-5.5504-2.3422c1.3694,1.6641,2.0482,1.7598,2.6961,2.001
			c11.7709,4.571,22.4152,13.5083,34.038,20.4712c0,0,12.4941,6.5562,21.1985,10.9022c3.7846,2.0668,3.3499,2.2755,6.5311,3.6897
			C195.5869,252.0538,195.3958,251.8831,195.1945,251.6898z M187.3844,244.3462c-0.1149-0.065-0.2128-0.1236-0.2943-0.1729
			c-6.3155-3.8047-10.1081-5.4897-14.7915-7.9919c0,0-1.6996-1.0627,0.8104,0.5644c3.0171,1.9423,7.2664,4.5854,7.2664,4.5854
			c1.107,0.5659,2.2099,1.1349,3.3226,1.6909c0.3548,0.1719,0.7104,0.3408,1.0701,0.5063c7.7628,3.5097,3.3911,1.2908,2.322,0.6448
			l0.7323,0.7165C187.657,244.6948,187.511,244.5137,187.3844,244.3462z M184.3811,230.8391
			c1.7818,2.3432,4.1075,4.9499,4.1075,4.9499C186.5863,233.3945,183.5596,229.7469,184.3811,230.8391z M181.3591,204.9747
			c2.3295,5.2341,5.3255,13.1356,5.3255,13.1356c1.5885,2.9596,2.8123,5.3447,2.8123,5.3447
			c-0.7766-1.9187-1.553-3.8413-2.341-5.7585C184.7053,211.7945,180.2313,202.4833,181.3591,204.9747z M162.2054,207.5742
			c0.4244,0.7381,0.8533,1.4697,1.298,2.1934c4.8203,7.8607,10.847,14.7715,16.7163,22.0579
			c0.6494,0.8064,1.3516,1.5752,2.0301,2.3581c-0.6452-0.8992-1.2784-1.8071-1.9111-2.715
			c-5.735-8.2915-11.0934-16.9193-18.203-24.0166C162.1616,207.4919,162.1837,207.5316,162.2054,207.5742z M175.0703,256.8123
			c0.2786,0.1348,0.5611,0.2703,0.8427,0.4088c1.255-0.1044,1.9872-0.2041-0.5952-0.3901L175.0703,256.8123z M145.085,217.3463
			c10.2303,6.4795,20.1903,13.3016,30.9606,18.9023l0.4099,0.2095c-9.9025-6.9344-20.1499-13.4202-30.9251-18.9213
			C145.5303,217.5368,144.2301,216.8142,145.085,217.3463z M169.1653,256.3921c-3.6019-0.2335-6.2768-0.3589-5.7744-0.2777
			c2.5484,0.3954,5.8599,0.7855,8.0642,1.0316C170.6943,256.8939,169.9297,256.6411,169.1653,256.3921z M172.4776,187.5477
			c1.1317,3.9913,4.9399,6.7921,7.4056,10.6563c-0.4287-0.8857-0.8544-1.771-1.2956-2.6474
			C176.5307,191.5118,172.3363,187.1169,172.4776,187.5477z M171.4291,181.7838c-0.2709,2.5332,1.1245,1.8501,4.8613,5.6232
			c1.5992,1.6159,6.0098,7.8996,0.5264-0.0682C174.3723,183.7858,171.4852,181.3276,171.4291,181.7838z M165.0119,241.6571
			c1.9158,1.0081,3.8546,1.9632,5.8398,2.8292C168.3768,243.3297,164.4055,241.3333,165.0119,241.6571z M159.4876,234.9351
			c3.7633,2.1308,9.438,5.098,9.438,5.098C160.9377,235.4599,157.254,233.6564,159.4876,234.9351z M129.3296,251.4156
			c4.5266,2.0578,9.56,3.6828,13.4175,4.369c2.2889,0.407,4.5719,0.8522,6.8419,1.2879c4.3979,0.5986,8.8437,0.9473,13.2806,1.1511
			c0,0,1.5978-0.0308,2.7894-0.0952C153.1572,257.8446,141.0208,255.3293,129.3296,251.4156z M143.3865,254.6678
			c6.2633,1.3663,12.6614,1.9919,19.0691,2.3364l-6.6421-1.1733C150.1102,255.5147,141.2702,254.1886,143.3865,254.6678z
			 M148.4671,253.2405c7.8987,1.8563,23.0515,2.9173,1.7417,0.207C149.4029,253.3421,147.9301,253.1102,148.4671,253.2405z
			 M158.6538,202.0633 M136.1012,225.3634c4.9239,4.5097,10.6071,8.108,16.3949,11.48l0.675,0.3852
			c-6.7113-4.191-15.7342-10.965-15.7342-10.965C135.4899,224.9174,135.8649,225.1425,136.1012,225.3634z M124.1201,247.0133
			c7.0503,4.5038,15.4188,6.5081,23.8564,7.2462c0,0-6.73-1.6028-12.5092-3.5276
			C135.4673,250.7319,123.842,246.8286,124.1201,247.0133z M155.2717,198.3115 M148.3227,221.3287
			c-5.1326-3.3984-10.1595-7.3375-15.8381-7.6965c0,0-0.2113-0.045,0.0663,0.0323c5.3617,1.5851,9.9862,4.9831,14.8938,7.8474
			C147.716,221.384,148.0147,221.3287,148.3227,221.3287c0.3452,0.2314,0.6919,0.4555,1.0387,0.6801
			C153.8662,224.8186,150.7734,221.3324,148.3227,221.3287z M155.2439,195.6339c0.1343-0.4077,2.7109-0.7381-2.4472-2.3009
			C152.7967,193.3329,154.8906,196.7325,155.2439,195.6339z M135.2997,249.3806 M133.3173,219.9516
			c-0.106-0.207-0.1628-0.4091-0.1487-0.6037c0.2416-1.4929-3.8878-2.7096,1.0531,1.3838L133.3173,219.9516
			c0.6375,1.256,3.0088,2.5242,0.9043,0.7801c-4.9408-4.0934-0.8114-2.8767-1.0531-1.3838L133.3173,219.9516z M126.5492,210.1756
			c-0.3718,5.1182,2.1052,2.7105,4.0685,2.2988c2.107-0.435,5.2686,0.3958,5.2686,0.3958
			C130.1714,210.2618,126.8557,207.931,126.5492,210.1756z M121.9872,244.0085c1.9825,0.9084,5.9126,2.7374,4.043,1.6647
			C123.2511,244.0275,120.9661,243.5316,121.9872,244.0085z M129.0047,215.3158 M121.0622,247.5518
			c-2.0272-1.7133-4.0854-3.8296-3.7725-3.3314c0.7658,1.1693,1.7621,2.1537,2.8783,3.0185
			c0.2386,0.0528,0.4799,0.1313,0.641,0.1969C120.886,247.4696,120.9724,247.5087,121.0622,247.5518z M116.4754,241.7585
			c0.8838-2.0936,7.586-2.4635,1.1603-1.9913C116.4113,239.8585,116.1161,242.9601,116.4754,241.7585z M118.1473,242.287
			c-0.1237,0.0122-0.1872,0.0273-0.1883,0.034c0.0086,0.0586,0.0209,0.1146,0.0336,0.1702
			C118.0554,242.4119,118.1055,242.3447,118.1473,242.287z"/>
	</g>
	<g transform="matrix(0.954993,-0.296629,0.446849,1.43862,-43.4549,-14.2584)">
		<path class="st3" d="M143.0027,222.4514c-1.4466,0.2054-3.0573,0.3337-4.8385,0.3416
			c-9.7353,0.0382-19.8835-0.9496-29.5091-2.5079c0,0-1.4377-0.7584-1.3105-1.0368c0.5262-0.8509,3.4468-0.955,5.9701-1.5076
			c11.7259-2.5157,26.7042-2.056,39.285,1.3766c0,0-0.1253,0.0935-0.3744,0.2521c0.0854,0.0258,0.1608,0.0482,0.2306,0.0723
			c0.0787-0.0129,0.1182-0.0206,0.1182-0.0206s5.9712,0.8707-1.2024,2.1419c-2.1806,0.3854-4.5002,0.656-6.8782,0.8111
			C143.9897,222.4055,143.4924,222.4327,143.0027,222.4514z"/>
	</g>
	<g transform="matrix(1.27903,-0.0464759,0.0363129,0.99934,-35.4987,5.57932)">
		<path class="st3" d="M176.7326,260.0592c-2.3042-1.5455-2.5269-8.9711-2.7203-10.1154c-0.0903-0.5223-0.1689-1.0517-0.2411-1.5845
			c-0.2503-1.8656-0.3972-3.7742-0.4579-5.7016c-0.1957-6.2473,0.6292-12.539,1.943-18.606
			c1.5526-7.1582,5.2063-21.5433,6.4989-0.2455c0.3842,6.3276-0.1633,14.7109-0.2063,15.9343
			c-0.2324,6.8225,0.2371,7.2452-1.9552,16.0752c-1.0177,4.1037-0.6291,3.9736-0.6291,3.9736s-1.5062,2.7291-1.8474,0.455
			C177.1172,260.2443,176.8997,260.1944,176.7326,260.0592z M178.9355,215.9562 M178.9239,215.9582 M178.878,215.9671
			 M178.8577,215.9721 M178.8234,215.9785"/>
	</g>
	<g transform="matrix(0.992639,-0.121107,0.150654,1.23481,-8.05571,-23.5343)">
		<path class="st3" d="M251.9789,198.6662c0,0-14.8896,37.7646-21.5062,67.9877c-10.3921,47.4678-18.1321,97.4038-11.9404,143.8238
			c0,0-2.1187,5.4413-3.6148-3.2094c-9.0049-54.1643,0.7363-110.4243,14.3328-158.2931
			c4.9741-17.4995,11.7888-34.7254,20.4442-50.2757C249.6945,198.6994,250.9357,198.1189,251.9789,198.6662z"/>
	</g>
	<g transform="matrix(-0.978681,0.205388,0.131576,0.626961,202.671,18.7149)">
		<path class="st3" d="M54.1345,359.8686c0,0-14.8896,37.7647-21.5062,67.9879c-10.3924,47.4674-18.1319,97.4034-11.9404,143.8234
			c0,0-2.1188,5.4418-3.6147-3.2094c-9.0047-54.1639,0.7359-110.424,14.3327-158.2928c4.9741-17.4998,11.789-34.7256,20.4444-50.276
			C51.8504,359.9016,53.0914,359.321,54.1345,359.8686z"/>
	</g>
</g>
</svg>
