<svg xmlns="http://www.w3.org/2000/svg" viewBox="0 0 32.6 46.19"><defs><style>.cls-1{fill:none;stroke:#333;stroke-linecap:round;stroke-linejoin:round;stroke-width:2px;}</style></defs><title>Asset 4</title><g id="Layer_2" data-name="Layer 2"><g id="Layer_2-2" data-name="Layer 2"><line class="cls-1" x1="16.39" y1="24.83" x2="16.39" y2="44.83" id="id_145" style="stroke: rgb(3, 3, 3);"></line><path class="cls-1" d="M16,24.94C34.17,23.44,21.79,1,21.79,1,18.69,1,16,4.35,16,4.35A7.1,7.1,0,0,0,10.15,1S-2.22,23.44,16,24.94Z" id="id_146" style="stroke: rgb(3, 3, 3);"></path><path class="cls-1" d="M16,24.94s-16.73-1-13.12-22L7.77,6.44" id="id_147" style="stroke: rgb(3, 3, 3);"></path><path class="cls-1" d="M16,24.94s16.73-1,13.12-22L24.17,6.44" id="id_148" style="stroke: rgb(3, 3, 3);"></path><path class="cls-1" d="M9.16,45.19A30,30,0,0,0,1,26.44,22.44,22.44,0,0,1,16.3,45.19" id="id_149" style="stroke: rgb(3, 3, 3);"></path><path class="cls-1" d="M23.45,45.19A30,30,0,0,1,31.6,26.44,22.44,22.44,0,0,0,16.3,45.19" id="id_150" style="stroke: rgb(3, 3, 3);"></path></g></g></svg>