<?xml version="1.0" encoding="utf-8"?>
<!-- Generator: Adobe Illustrator 24.0.2, SVG Export Plug-In . SVG Version: 6.00 Build 0)  -->
<svg version="1.1" id="Layer_1" xmlns="http://www.w3.org/2000/svg" xmlns:xlink="http://www.w3.org/1999/xlink" x="0px" y="0px"
	 viewBox="0 0 512 512" style="enable-background:new 0 0 512 512;" xml:space="preserve">
<style type="text/css">
	.st0{fill-rule:evenodd;clip-rule:evenodd;fill:#FFEFEC;}
	.st1{fill-rule:evenodd;clip-rule:evenodd;fill:#CFA669;}
	.st2{fill-rule:evenodd;clip-rule:evenodd;fill:#FF8888;}
	.st3{fill-rule:evenodd;clip-rule:evenodd;fill:#C43737;}
</style>
<g transform="matrix(1,0,0,1,274.652,265.67)">
	<circle class="st0" cx="-18.5633" cy="-9.9601" r="250.0002"/>
</g>
<g transform="matrix(1,0,0,1,-3.46191,-4.95391)">
	<g transform="matrix(0.985877,-0.167472,0.167472,0.985877,-60.8662,72.2764)">
		<path class="st1" d="M373.522,147.1866c-15.0298,30.719-25.1642,63.7398-44.8745,92.2708
			c-30.0403,43.4848-72.1976,81.4152-78.0907,135.2969c-1.9249,17.5756,1.4709,35.2892,4.9907,52.8171l-1.4854,3.9545
			l-2.7699-1.7245c-2.3165-8.7256-4.3557-16.8732-5.8982-25.4699l-0.1051-0.611c-7.7323-56.4276,35.8577-109.3018,67.6745-150.3699
			c24.8778-32.3329,39.7119-71.5289,56.819-106.2543C369.7824,147.0963,371.9081,142.3916,373.522,147.1866z"/>
	</g>
	<g transform="matrix(0.985877,-0.167472,0.167472,0.985877,-60.8662,72.2764)">
		<path class="st1" d="M278.5293,95.8888c2.3689,19.3518,4.4225,38.7374,5.4253,58.271c0.0575,1.2081,0.0479,1.2035,0.0909,2.4118
			c0.912,31.2439-0.75,62.6741-6.4048,93.3739c-7.7749,42.2192-24.9969,82.4419-26.105,125.8787l-2.3594,2.2495
			c0,0-2.2971-1.6906-2.173-5.4348c1.987-52.2583,24.6534-101.6316,29.9211-155.0121c3.9689-40.2132,2.1491-81.1571-1.4947-121.4087
			C275.4297,96.2181,275.1766,93.1092,278.5293,95.8888z"/>
	</g>
	<g transform="matrix(0.985877,-0.167472,0.167472,0.985877,-60.8662,72.2764)">
		<path class="st1" d="M191.5405,186.9319c18.822,11.1278,32.3043,29.2765,45.1754,46.5941
			c14.1083,19.2515,10.4262,47.5679,13,72.336c4.3463,41.8367,1.0269,84.7772,6.4524,123.0753l-1.9675,2.6027
			c0,0-2.5217-1.2655-2.9566-4.6279c-4.852-39.8359-1.3372-79.6717-5.4396-120.6538c-2.3546-24.2236,2.216-51.0783-11.9682-70.6215
			c-12.8904-17.5132-25.451-35.0455-44.7888-46.36l-0.5922-2.2446C188.4555,187.0322,190.2275,186.1678,191.5405,186.9319z"/>
	</g>
	<g transform="matrix(0.985877,-0.167472,0.167472,0.985877,-60.8662,72.2764)">
		<path class="st1" d="M171.4102,303.8608c2.7032,0.3198,3.0229,0.3294,3.7538,0.4153c1.6907,0.2199,3.3337,0.621,4.9621,1.1082
			c23.7746,7.3307,47.7544,17.1216,60.8262,38.1548c0.5876,0.9552,3.2239,3.8492,3.5389,4.2314l0.134,0.1669
			c1.6189,2.4933-1.4998-3.1947,3.5053,10.6505c1.2272,3.4675-0.1145-0.788,1.5187,4.642c0.936,3.1905,1.7097,6.419,2.3353,9.6858
			l-1.8575,2.6839l-3.9211-8.0569c-5.8936-7.1016-12.3888-14.0222-12.3888-14.0222c-7.7754-4.1595-5.4209-3.0853-11.6678-5.8598
			c-17.8903-8.1621-29.2142-25.2121-47.0761-36.4451C166.2571,305.9527,168.4397,303.7318,171.4102,303.8608z"/>
	</g>
	<g transform="matrix(0.985877,-0.167472,0.167472,0.985877,-60.8662,72.2764)">
		<path class="st1" d="M372.3758,258.9861c0.5445,0.0096,1.0893,0.0287,1.6286,0.0717c7.5699,0.5634-5.664,10.1393-24.4764,17.6755
			c-20.7324,8.3008-43.623,9.2466-61.7333,24.1232c-10.0441,8.2529-19.4334,18.7219-24.9781,30.3751
			c-3.8398,7.3933,2.9659-12.1021,12.8088-24.4288c0,0,7.5459-11.252,16.8495-18.464
			c15.3929-11.9202,34.4484-18.3344,53.4901-23.1536l13.7832-4.3313C363.9657,259.8461,367.1892,258.9716,372.3758,258.9861z"/>
	</g>
	<path class="st2" d="M123.5329,212.4373c0,0-9.7093,0.0094-9.7619-4.4227c-0.0334-2.8175,6.667-3.9352,6.667-3.9352
		s-0.5873-2.0727-1.705-4.0884c-6.3614-12.1355-1.1605-14.1508,5.0053-9.437c0,0-1.6955-10.722,3.219-12.198
		c4.3555-1.3035,8.3913,8.1383,8.3913,8.1383s0.0954-8.8925,4.5084-9.3702c4.4462-0.4824,7.2688,8.1284,5.9889,15.7081
		c16.1665,6.0511,38.599,34.267,18.9173,46.5939C149.6429,248.9011,126.5418,231.7128,123.5329,212.4373z M137.8031,228.3791
		c1.6908,1.7482,6.5673,6.3807,1.6335,1.2944C139.4366,229.6735,137.2351,227.7819,137.8031,228.3791z"/>
	<path class="st2" d="M203.2479,95.2075c-4.1124-3.4579-6.9971-8.4726-2.4935-11.1993c3.3718-2.0393,10.13,3.3239,10.13,3.3239
		s-1.6527-1.8338-2.0825-8.3339c-0.6828-10.1728,8.2671-6.9538,11.6008,1.877c0,0,1.8865-8.6592,7.7132-9.0984
		c7.1923-0.0381,1.791,14.6337,1.5042,15.0347c-0.1002,0.143-0.2003,0.2817-0.2962,0.4105
		c1.8582,0.7166,3.5919,1.9344,5.0772,3.7447c7.1875,8.7637,8.4199,21.3003,8.458,22.9483
		c0.2436,10.2537-3.8782,22.5613-12.7613,24.295c0,0-21.3914-18.0055-21.6063-34.5346c-0.1002,0.0235-0.1768,0.0334-0.2389,0.0287
		c-4.5563-0.2341-6.3134,0.702-7.8369-1.6193C198.806,99.6345,200.4634,96.201,203.2479,95.2075z"/>
	<path class="st2" d="M339.624,106.8417c-0.3296-0.8501-0.6494-1.7002-0.9503-2.5598c-2.9327-8.3532-2.8942-20.3264,4.7565-21.2814
		c6.548-0.8219,8.8262,9.2268,9.4276,16.1661c0.2821-0.6113,0.5685-1.2178,0.8647-1.8193c0.4871-0.9747,1.0029-1.9297,1.5521-2.8753
		c1.7718-3.0568,2.8368-6.3426,7.1687-6.6101c5.6213,0.1434,6.5908,8.6682,3.6629,14.7672c0,0,8.8929-3.6822,9.3086,3.3577
		c0.1956,3.2952-4.7951,6.1846-4.7951,6.1846c6.6815,4.9574,0.315,11.9733-9.0458,12.451c0.2054,3.7395-0.5107,10.187-1.767,13.5875
		c-5.9509,16.1233-20.8422,36.1107-34.2436,24.3857C310.3477,149.2899,319.6318,123.2994,339.624,106.8417z"/>
	<path class="st3" d="M213.726,99.5343l0.0146,0.086l0.0715,0.4396l0.0955,0.5252l0.1002,0.5205l0.1053,0.5252l0.1147,0.5257
		l0.1241,0.5252l0.0668,0.277l0.0621,0.2483l0.1288,0.5252l0.1387,0.5257l0.1481,0.5252l0.086,0.2962l0.0621,0.229l0.1528,0.521
		l0.1575,0.5252l0.1669,0.5158l0.0719,0.2196l0.0954,0.3009l0.1669,0.5205l0.1768,0.5158l0.1815,0.5158l0.1909,0.5111l0.0719,0.1815
		l0.1241,0.3245l0.1956,0.5064l0.2102,0.5017l0.2149,0.4966l0.2196,0.4918l0.2294,0.4871l0.0334,0.0621l0.2055,0.4204l0.2436,0.4777
		l0.2483,0.4726l0.2577,0.4683l0.2675,0.4585l0.2722,0.4537l0.2868,0.4486l-0.1006,0.521l-0.5158-0.1147l-0.3056-0.4396
		l-0.3005-0.4537l-0.2962-0.4585l-0.2868-0.4679l-0.2817-0.473l-0.2722-0.4773l-0.2342-0.4204l-0.0334-0.0621l-0.2577-0.4918
		l-0.2483-0.497l-0.2436-0.4966l-0.2389-0.5064l-0.2294-0.5107l-0.143-0.3296l-0.0766-0.1819l-0.2102-0.5201l-0.2055-0.5257
		l-0.1956-0.5252l-0.191-0.5257l-0.1053-0.3103l-0.0715-0.2243l-0.1627-0.5351l-0.1524-0.5398l-0.1481-0.5394l-0.0621-0.2342
		l-0.0766-0.3056l-0.1288-0.5445l-0.1194-0.5445l-0.1147-0.5394l-0.0479-0.2581l-0.0522-0.2868l-0.0954-0.5441l-0.0861-0.5398
		l-0.0813-0.5445l-0.0766-0.5398l-0.0664-0.5347l-0.0527-0.449l-0.0094-0.086l0.3484-0.4632L213.726,99.5343z"/>
	<path class="st3" d="M222.7097,120.9977l0.2338,0.3724l0.2388,0.3677l0.2389,0.363l0.2436,0.3583l0.2534,0.3579l0.253,0.3536
		l0.2577,0.3484l0.2628,0.3489l0.2628,0.3437l0.2718,0.3442l0.2727,0.339l0.2769,0.339l0.277,0.3343l0.2864,0.3296l0.2868,0.3296
		l0.2911,0.3245l-0.0334,0.5685l-0.5633-0.0334l-0.2962-0.3296l-0.2915-0.3343l-0.2911-0.3343l-0.2868-0.339l-0.2817-0.3437
		l-0.2816-0.3442l-0.277-0.3484l-0.2722-0.3536l-0.2675-0.3531l-0.2628-0.3583l-0.2628-0.3583l-0.253-0.3677l-0.253-0.363
		l-0.2483-0.3724l-0.2436-0.3728l-0.2389-0.3724l0.1288-0.5685L222.7097,120.9977z"/>
	<path class="st3" d="M220.8421,104.2387l0.0193,0.0479l0.5205,1.1318l0.5492,1.1746l0.2628,0.5543l0.2864,0.6207l0.5543,1.175
		l0.5681,1.2037l0.5111,1.1558l0.4683,1.0552l0.5728,1.3278l-0.1717,0.5539l-0.5351-0.2243l-0.6447-1.2992l-0.5064-1.0316
		l-0.5539-1.1365l-0.5539-1.2131l-0.5398-1.1844l-0.2817-0.6258l-0.2483-0.5633l-0.521-1.1939l-0.4918-1.1463l-0.0188-0.0479
		l0.2102-0.5445L220.8421,104.2387z"/>
	<path class="st3" d="M222.2174,94.3574l0.2102,0.2722l0.1293,0.1768l0.086,0.1336l0.1002,0.2722l0.1815,0.4585l0.1721,0.4636
		l0.2145,0.5539l0.1387,0.3677l0.3677,0.9216l-0.2148,0.5779l-0.5779-0.2149l-0.0095-0.0193l-0.449-0.8643l-0.1815-0.3583
		l-0.2675-0.5394l-0.2196-0.449l-0.2102-0.4537l-0.1194-0.2675l-0.0334-0.1528l-0.0334-0.2243l-0.0428-0.3202v-0.0188l0.2243-0.5351
		L222.2174,94.3574z"/>
	<path class="st3" d="M223.746,88.6406l0.0527,0.0668l0.3677,0.4824l0.4298,0.559l0.4058,0.5488l0.4157,0.559l0.0954,0.1288
		l0.2864,0.449l0.3681,0.5826l0.3677,0.5873l0.3578,0.5924l0.3536,0.592l0.1002,0.1627l0.2436,0.4345l0.3343,0.6066l0.3249,0.6066
		l0.3249,0.6066l0.3104,0.616l0.3103,0.616l0.0385,0.0766l0.253,0.5445l0.2817,0.6301l0.2769,0.6305l0.2722,0.6352l0.2577,0.64
		l0.1674,0.4203l0.086,0.2196l0.2341,0.6498l0.229,0.6541l0.2149,0.6545l0.2149,0.6592l0.1293,0.4345l0.0621,0.2337l0.1716,0.6733
		l0.1622,0.6738l0.1532,0.678l0.0522,0.2389l0.0907,0.4443l0.134,0.6875l0.1241,0.6832l-0.3108,0.5539l-0.5201-0.3536l-0.196-0.6639
		l-0.2102-0.6494l-0.1387-0.4251l-0.0762-0.2243l-0.2196-0.6399l-0.2341-0.64l-0.2436-0.6305l-0.086-0.22l-0.1481-0.4152
		l-0.2337-0.6305l-0.2436-0.6258l-0.2534-0.6254l-0.2577-0.616l-0.0955-0.2149l-0.1674-0.4062l-0.2624-0.616l-0.2722-0.616
		l-0.2774-0.6117l-0.2864-0.6061l-0.253-0.5304l-0.0385-0.0762l-0.2864-0.6066l-0.2911-0.6066l-0.3009-0.6019l-0.3108-0.6019
		l-0.3103-0.5967l-0.2337-0.4298l-0.086-0.1674l-0.3155-0.6019l-0.3197-0.5967l-0.3296-0.5924l-0.3296-0.5924l-0.2628-0.4538
		l-0.0715-0.143l-0.3056-0.6113l-0.315-0.6019l-0.0051-0.0094l-0.3198-0.6066l-0.2864-0.5304l-0.0432-0.0762l0.1241-0.5685
		L223.746,88.6406z"/>
	<path class="st3" d="M228.9516,109.7213l0.2769,0.3155l0.1147,0.277l0.2675,0.64l0.2577,0.6447l0.2102,0.5398l0.0385,0.11
		l0.2337,0.6541l0.2294,0.6545l0.2149,0.6639l0.2003,0.6348l0.0099,0.0287l0.1862,0.6686l0.1717,0.6785l0.1627,0.6733l0.1528,0.6828
		l0.1383,0.6447l0.0051,0.0385l0.1241,0.6875l0.1143,0.6879l0.1006,0.6879l-0.4251,0.6207l-0.6066-0.4443l-0.134-0.6733
		l-0.143-0.6639l-0.1575-0.6588l-0.0098-0.0334l-0.1528-0.6258l-0.1717-0.6545l-0.1815-0.6541l-0.1961-0.6494l-0.2008-0.6498
		l-0.0094-0.024l-0.1862-0.6254l-0.2008-0.6498l-0.2101-0.6447l-0.2197-0.6447l-0.0381-0.11l-0.1768-0.5394l-0.2196-0.6447
		l-0.2243-0.6451l-0.1053-0.2817l-0.0094-0.4156l0.2337-0.5347L228.9516,109.7213z"/>
	<path class="st3" d="M235.8627,102.104l0.2577,0.449l0.2342,0.4152l0.0141,0.0432l0.1768,0.4773l0.1669,0.4777l0.1627,0.4777
		l0.1528,0.4777l0.1002,0.3437l0.0432,0.1383l0.1241,0.4777l0.1241,0.4824l0.1096,0.4824l0.1053,0.4824l0.0954,0.4824l0.0715,0.3677
		l0.0192,0.1147l0.0715,0.4867l0.0621,0.4824l0.0574,0.4871l0.0526,0.4871l0.0428,0.4876l0.0334,0.4918l0.0291,0.4871l0.0188,0.4918
		l0.0145,0.4918l0.0047,0.4965l-0.0047,0.497v0.205l-0.0098,0.2915l-0.0141,0.4966l-0.0287,0.5017l-0.0287,0.5013l-0.0381,0.5064
		l-0.0479,0.5064l-0.0527,0.5107l-0.0573,0.5111l-0.6353,0.5205l-0.5158-0.6399l0.0479-0.506l0.0381-0.4918l0.0338-0.497
		l0.0283-0.4871l0.0193-0.4871l0.0094-0.4871l0.0051-0.4824v-0.277v-0.2008l-0.0051-0.4773l-0.0141-0.4777l-0.0193-0.4726
		l-0.0235-0.473l-0.0385-0.4683l-0.0381-0.4679l-0.0475-0.4679l-0.0578-0.4679l-0.0621-0.4636l-0.0715-0.4632l-0.0762-0.4632
		l-0.0193-0.11l-0.0574-0.3531l-0.086-0.4636l-0.0907-0.4632l-0.1001-0.4632l-0.1049-0.4683l-0.1147-0.4632l-0.0334-0.1288
		l-0.0813-0.3343l-0.1241-0.4679l-0.1288-0.4683l-0.1387-0.473l-0.1434-0.4679l-0.0141-0.0381l-0.0719-0.4585l-0.1002-0.5017
		l0.2389-0.5299L235.8627,102.104z"/>
	<path class="st3" d="M345.1117,112.6779l-0.1293,0.568l-0.2769,0.3442l-0.2243,0.3484l-0.024,0.0193l-0.3343,0.2294l-0.3296,0.2384
		l-0.325,0.2483l-0.3198,0.2487l-0.1049,0.0809l-0.2149,0.1674l-0.3154,0.253l-0.3151,0.2581l-0.3056,0.2671l-0.3057,0.2675
		l-0.0381,0.0287l-0.2675,0.2389l-0.2962,0.277l-0.2963,0.2817l-0.2911,0.2821l-0.2915,0.2864l-0.2816,0.2915l-0.2868,0.2958
		l-0.2769,0.3009l-0.2722,0.3009l-0.2722,0.3103l-0.2723,0.3108l-0.2624,0.3103l-0.2628,0.3198l-0.2577,0.3202l-0.2581,0.3245
		l-0.253,0.3249l-0.2487,0.3296l-0.0715,0.0955l-0.1764,0.2389l-0.244,0.3343l-0.2436,0.3343l-0.2384,0.339l-0.2342,0.3442
		l-0.2341,0.3437l-0.229,0.3437l-0.2294,0.3489l-0.4491,0.7067l-0.4345,0.7114l-0.425,0.7213l-0.4156,0.726l-0.4058,0.7307
		l-0.0668,0.1241l-0.3442,0.6018l-0.4011,0.7307l-0.3964,0.7354l-0.3818,0.7354l-0.3776,0.7401l-0.1721,0.3489l-0.1956,0.387
		l-0.3677,0.7401l-0.3536,0.7354l-0.3484,0.7406l-0.8929,0.363l-0.3347-0.9028l0.3108-0.7594l0.3198-0.7688l0.3249-0.7692
		l0.1768-0.4058l0.1622-0.363l0.3489-0.7688l0.3629-0.7688l0.3677-0.7692l0.3771-0.7641l0.3249-0.6352l0.0715-0.1241l0.4156-0.7495
		l0.4298-0.7453l0.4392-0.7401l0.4537-0.7311l0.4632-0.7256l0.2389-0.363l0.2389-0.3583l0.2436-0.3536l0.2483-0.3531l0.2483-0.3536
		l0.2534-0.3484l0.253-0.3442l0.1862-0.2436l0.0766-0.1002l0.2624-0.339l0.2675-0.3395l0.2722-0.3339l0.2722-0.3296l0.2769-0.3296
		l0.2821-0.3249l0.2864-0.3198l0.2868-0.3202l0.2958-0.3103l0.2915-0.3103l0.3009-0.3103l0.3056-0.3009l0.3056-0.2962l0.3103-0.2962
		l0.3155-0.2915l0.3198-0.2864l0.2816-0.2483l0.0381-0.0334l0.3296-0.277l0.3296-0.2722l0.339-0.2628l0.3394-0.2628l0.229-0.1764
		l0.1147-0.0813l0.3484-0.2483l0.3583-0.2389l0.3583-0.2389l0.363-0.229l0.0236-0.0193l0.4302-0.0715l0.4392-0.1006
		L345.1117,112.6779z"/>
	<path class="st3" d="M327.2021,140.4641v0.0479l0.0141,1.3274v0.0193l0.0094,0.9028l-0.0047,0.4918l-0.0047,0.3103l-0.062,1.0744
		l-0.0479,0.9554l-0.024,0.4298l-0.0762,1.3899l-0.0381,0.8497l-0.0287,0.5351l-0.0573,1.3899l-0.0475,1.3326l-0.0051,0.0569
		l-0.5732,0.5544l-0.5539-0.5779v-0.0574l0.0094-1.3372l0.0193-1.3993l0.0094-0.5398l0.024-0.8595l0.0428-1.3946l0.0193-0.4345
		l0.0479-0.9648l0.0621-1.0796l0.0334-0.3151l0.0573-0.4918l0.1336-0.8934v-0.0235l0.2102-1.3086l0.0098-0.0527l0.4392-0.3822
		L327.2021,140.4641z"/>
	<path class="st3" d="M346.425,121.6325l-0.3437,0.4156l-0.3395,0.4204l-0.3343,0.4251l-0.3245,0.4251l-0.3249,0.4251l-0.315,0.4298
		l-0.3108,0.4345l-0.3056,0.4345l-0.1335,0.2008l-0.167,0.2389l-0.2962,0.4396l-0.2915,0.4392l-0.2864,0.4443l-0.2817,0.4486
		l-0.2774,0.4443l-0.2675,0.4537l-0.2671,0.4538l-0.0146,0.024l-0.253,0.4246l-0.2577,0.4589l-0.2581,0.4537l-0.2483,0.4585
		l-0.2487,0.4632l-0.2431,0.4632l-0.2389,0.4632l-0.0334,0.0672l-0.2055,0.4011l-0.2341,0.4632l-0.2341,0.4679l-0.229,0.4683
		l-0.2243,0.4726l-0.22,0.473l-0.2149,0.4773l-0.2097,0.4777l-0.0479,0.1002l-0.1623,0.3775l-0.2102,0.4777l-0.2007,0.482
		l-0.2008,0.4824l-0.1956,0.4871l-0.1909,0.4875l-0.1866,0.4919l-0.1862,0.4918l-0.1764,0.4918l-0.0672,0.1768l-0.1143,0.3151
		l-0.1721,0.497l-0.1721,0.4966l-0.1716,0.5013l-0.1627,0.5017l-0.1623,0.5017l-0.1575,0.506l-0.1528,0.5064l-0.1481,0.506
		l-0.1481,0.5064l-0.1434,0.5111l-0.143,0.5111l-0.2675,1.0316l-0.2055,0.8262l-0.0621,0.205l-0.2722,1.0316l-0.2577,1.0269
		l-0.0051,0.0146l-0.253,1.0457l-0.2054,0.9122l-0.0334,0.1387l-0.4825,0.3296l-0.3296-0.4824l0.024-0.1434l0.1387-0.9268
		l0.1669-1.0744v-0.0141l0.1862-1.0556l0.196-1.065l0.0428-0.2149l0.1909-0.8407l0.2534-1.0457l0.1288-0.5252l0.1335-0.5209
		l0.1387-0.5205l0.1434-0.5205l0.1481-0.5158l0.1477-0.5158l0.1533-0.5158l0.1524-0.5158l0.1627-0.5107l0.1622-0.5111l0.1674-0.5111
		l0.1096-0.3202l0.0621-0.1862l0.1768-0.506l0.1866-0.5017l0.1811-0.5017l0.1913-0.5013l0.1956-0.4966l0.1956-0.497l0.2054-0.4965
		l0.2055-0.4919l0.1627-0.387l0.0475-0.1049l0.2196-0.4876l0.2196-0.4867l0.2294-0.4824l0.2295-0.4824l0.2337-0.4824l0.2436-0.4777
		l0.2436-0.4773l0.2102-0.4062l0.0385-0.0668l0.2624-0.4679l0.2628-0.4636l0.2722-0.4632l0.277-0.4585l0.2769-0.4585l0.2817-0.4537
		l0.2769-0.4298l0.0145-0.024l0.2962-0.449l0.3005-0.4439l0.3056-0.4443l0.3155-0.4396l0.3151-0.4392l0.3202-0.4345l0.3244-0.4345
		l0.1768-0.2341l0.1528-0.1909l0.3343-0.4255l0.3438-0.4246l0.3441-0.4203l0.3485-0.4156l0.3582-0.4152l0.3583-0.4156l0.3677-0.4058
		l0.3677-0.4062l0.5732-0.0475L346.425,121.6325z"/>
	<path class="st3" d="M349.706,127.999l-0.3103,0.4251l-0.3061,0.4298l-0.2958,0.4345l-0.2915,0.4349l-0.2863,0.4439l-0.277,0.4443
		l-0.2722,0.449l-0.0385,0.0668l-0.229,0.3865l-0.2675,0.4589l-0.2577,0.458l-0.2534,0.4636l-0.2436,0.4632l-0.2436,0.4683
		l-0.0141,0.0282l-0.2294,0.4443l-0.2342,0.473l-0.2337,0.4726l-0.2294,0.4777l-0.1909,0.4203l-0.0334,0.0569l-0.2294,0.4777
		l-0.2243,0.4824l-0.1768,0.3823l-0.0475,0.0955l-0.2247,0.4773l-0.4105,0.8981l-0.0334,0.0668l-0.4396,0.9601l-0.4345,0.9696
		l-0.1862,0.4298l-0.2769,0.5205l-0.4824,0.9456l-0.5351,0.2294l-0.229-0.5398l0.3056-1.0175l0.1717-0.568l0.1721-0.4443
		l0.3964-0.9935l0.4058-0.9931l0.0287-0.0668l0.4063-0.9169l0.2196-0.4923l0.0479-0.0955l0.1862-0.3917l0.2337-0.482l0.2436-0.4824
		l0.0287-0.0625l0.22-0.4152l0.2577-0.473l0.2628-0.4726l0.2624-0.4683l0.2534-0.4392l0.0188-0.0287l0.2769-0.4632l0.2821-0.4589
		l0.2816-0.458l0.2911-0.4537l0.2962-0.449l0.2582-0.3823l0.0428-0.0621l0.3056-0.4439l0.3103-0.4396l0.3155-0.4298l0.3198-0.4298
		l0.3249-0.4298l0.3343-0.4204l0.3343-0.4156l0.5158-0.0762L349.706,127.999z"/>
	<path class="st3" d="M355.9339,124.9709l-0.0193,0.0432l-0.2149,0.5539l-0.2243,0.6014l-0.4443,1.2037l-0.1241,0.3489
		l-0.3155,0.8596l-0.2671,0.702l-0.1913,0.4966l-0.2337,0.6019l-0.11,0.2769l-0.1335,0.3202l-0.2582,0.592l-0.11,0.2436
		l-0.1623,0.3442l-0.2769,0.5826l-0.1622,0.3296l-0.1241,0.253l-0.3009,0.5826l-0.3009,0.5732l-0.5638,0.2102l-0.1815-0.5732
		l0.2628-0.5873l0.2483-0.5873l0.1053-0.2628l0.1382-0.3296l0.2436-0.5873l0.1339-0.3489l0.1002-0.2436l0.2389-0.592l0.1241-0.3202
		l0.1147-0.2722l0.2436-0.592l0.2004-0.4871l0.2868-0.6926l0.3531-0.8454l0.1435-0.339l0.5016-1.1891l0.2577-0.5924l0.2388-0.5445
		l0.0193-0.0475l0.5346-0.2247L355.9339,124.9709z"/>
	<path class="st3" d="M359.1812,129.9809l-0.0522,0.1528l-0.1194,0.3484l-0.1768,0.497l-0.1862,0.4966l-0.1815,0.497l-0.1909,0.4966
		l-0.1909,0.4918l-0.196,0.4966l-0.2008,0.4923l-0.2003,0.4919l-0.2055,0.4871l-0.2102,0.4871l-0.2102,0.4871l-0.2149,0.4871
		l-0.2196,0.4871l-0.2101,0.4538l-0.0142,0.0287l-0.2294,0.4777l-0.2342,0.4773l-0.2337,0.4777l-0.2388,0.4726l-0.2436,0.4777
		l-0.2487,0.4679l-0.2483,0.473l-0.253,0.4683l-0.229,0.4105l-0.0291,0.0526l-0.2671,0.4632l-0.2675,0.4585l-0.2722,0.4538
		l-0.2769,0.4585l-0.2816,0.4537l-0.2821,0.449l-0.2864,0.4486l-0.2915,0.4443l-0.1241,0.1913l-0.1716,0.253l-0.3056,0.4345
		l-0.3061,0.4345l-0.3104,0.4298l-0.2675,0.3677l-0.0475,0.0625l-0.3202,0.4251l-0.3244,0.4199l-0.3296,0.4203l-0.3296,0.4156
		l-0.2916,0.363l-0.0428,0.0522l-0.3391,0.4062l-0.3437,0.4058l-0.3489,0.4062l-0.3488,0.4011l-0.3531,0.3964l-0.3536,0.3917
		l-0.3583,0.3917l-0.3625,0.3913l-0.3677,0.3822l-0.3677,0.3823l-0.086,0.0856l-0.2868,0.2915l-0.3772,0.3775l-0.3823,0.3677
		l-0.3818,0.3677l-0.3869,0.3677l-0.387,0.363l-0.3917,0.3583l-0.3964,0.3531l-0.4011,0.3536l-0.4011,0.3437l-0.4015,0.3489
		l-0.4105,0.339l-0.4204-0.024l0.0334-0.4203l0.3916-0.3536l0.3917-0.3579l0.3822-0.3583l0.3818-0.363l0.3728-0.3677l0.3724-0.3677
		l0.3724-0.3724l0.363-0.3775l0.3583-0.3818l0.3579-0.3823l0.3536-0.387l0.2722-0.3009l0.0766-0.0907l0.3484-0.3913l0.3442-0.3917
		l0.339-0.4015l0.3391-0.3964l0.3296-0.4058l0.3296-0.4058l0.3244-0.4109l0.3202-0.4105l0.3198-0.4156l0.3151-0.4156l0.0385-0.0574
		l0.2722-0.3626l0.3104-0.4204l0.3056-0.4251l0.3009-0.4251l0.2962-0.4302l0.0475-0.0621l0.2534-0.3677l0.2911-0.4298l0.2915-0.4345
		l0.2911-0.4345l0.1627-0.2487l0.1241-0.1858l0.2863-0.4396l0.2821-0.4345l0.2817-0.4443l0.2769-0.4443l0.2722-0.4439l0.2722-0.4443
		l0.2671-0.449l0.2628-0.4537l0.0334-0.0522l0.2341-0.3964l0.2577-0.4538l0.2628-0.4585l0.253-0.4538l0.2534-0.4585l0.2483-0.4636
		l0.2435-0.4632l0.2436-0.4632l0.2337-0.4679l0.0146-0.024l0.2247-0.4396l0.2337-0.4679l0.2342-0.473l0.2243-0.4726l0.2247-0.473
		l0.2196-0.4726l0.2196-0.4777l0.2149-0.4777l0.2102-0.482l0.2054-0.4828l0.2055-0.482l0.1956-0.4824l0.1956-0.4871l0.196-0.4871
		l0.1288-0.339l0.0621-0.1532l0.5257-0.2431L359.1812,129.9809z"/>
	<path class="st3" d="M131.5085,212.2078l0.2294,0.5492l0.2436,0.5398l0.2483,0.5299l0.2581,0.521l0.2671,0.5158l0.2722,0.5107
		l0.2821,0.5017l0.2911,0.4918l0.3009,0.4871l0.1674,0.2628l0.1383,0.2196l0.3108,0.4777l0.3198,0.4679l0.3296,0.4632l0.3343,0.4537
		l0.3437,0.4538l0.3442,0.4443l0.3531,0.4439l0.363,0.4349l0.3677,0.4298l0.2628,0.3009l0.1096,0.1288l0.3677,0.4298l0.3822,0.4251
		l0.3823,0.4203l0.1575,0.1622l0.2342,0.2581l0.3912,0.4152l0.4011,0.4156l0.4062,0.4058l0.1815,0.1815l0.2294,0.2294l0.4199,0.4011
		l0.4251,0.4011l0.4298,0.3964l0.4444,0.3964l0.0762,0.8553l-0.8548,0.0569l-0.4632-0.3771l-0.4632-0.3822l-0.4585-0.3913
		l-0.4538-0.3917l-0.2483-0.2196l-0.196-0.1815l-0.4345-0.4062l-0.4298-0.4109l-0.4203-0.4152l-0.2534-0.253l-0.1622-0.1721
		l-0.4011-0.4298l-0.3964-0.4396l-0.387-0.4439l-0.1147-0.134l-0.2577-0.3197l-0.363-0.4679l-0.3583-0.4683l-0.3437-0.473
		l-0.339-0.4773l-0.0047-0.0047l-0.3249-0.4824l-0.3198-0.497l-0.3108-0.4966l-0.3056-0.5064l-0.2962-0.506l-0.1289-0.2389
		l-0.1575-0.2769l-0.277-0.5257l-0.2675-0.5252l-0.2577-0.5347l-0.2534-0.5398l-0.2436-0.5445l-0.2337-0.5539l-0.2295-0.559
		l-0.2149-0.5633l-0.1768-0.4824l-0.0334-0.086l0.2342-0.5351L131.5085,212.2078z"/>
	<path class="st3" d="M146.3331,226.9892l0.2196,0.1674l0.2628,0.1956l0.2629,0.1913l0.2675,0.1862l0.2671,0.1862l0.2675,0.1768
		l0.2723,0.1815l0.2769,0.1716l0.2243,0.1387l0.0527,0.0334l0.2723,0.1674l0.5637,0.3292l0.5299,0.3009l0.0334,0.0193l0.5685,0.3103
		l0.5779,0.3009l0.1096,0.0574l0.4636,0.2436l0.5826,0.2958l0.1288,0.0625l0.4537,0.2243l0.5877,0.2817l0.2671,0.1241l0.3249,0.1528
		l0.5972,0.2628l0.6066,0.2581l0.2816,0.5967l-0.6112,0.2581l-0.6306-0.22l-0.6305-0.229l-0.339-0.1335l-0.2817-0.11l-0.6211-0.2577
		l-0.482-0.2102l-0.134-0.0625l-0.6066-0.2911l-0.4824-0.2436l-0.1143-0.0621l-0.5877-0.3296l-0.5779-0.339l-0.0334-0.024
		l-0.5346-0.3343l-0.5591-0.3724l-0.2769-0.1862l-0.0475-0.0385l-0.2247-0.1575l-0.2722-0.2003l-0.2675-0.2008l-0.2671-0.2003
		l-0.2675-0.2055l-0.2628-0.2102l-0.2577-0.2149l-0.2581-0.2149l-0.2149-0.1815l-0.0381-0.0338l-0.0621-0.5822l0.5779-0.0578
		L146.3331,226.9892z"/>
	<path class="st3" d="M138.7346,208.5924l0.4298,0.339l0.2341,0.1768l0.253,0.2008l0.4918,0.3677l0.0287,0.0188l0.4302,0.3823
		l0.4585,0.3964l0.4632,0.3964l0.4632,0.387l0.4683,0.3865l0.3291,0.2675l0.1387,0.1147l0.4679,0.3771l0.4683,0.3775l0.4725,0.3724
		l0.473,0.3677l0.4824,0.3583l0.4773,0.3583l0.1006,0.0668l0.3818,0.2864l0.4824,0.3536l0.4871,0.3489l0.4871,0.339l0.4919,0.339
		l0.0907,0.0574l0.4011,0.277l0.497,0.3343l0.5012,0.3249l0.5064,0.3245l0.4396,0.2722l0.0668,0.0432l0.5013,0.3296l0.5064,0.3245
		l0.5158,0.3155l0.5205,0.3103l0.0428,0.024l0.4824,0.2817l0.5304,0.2958l0.5445,0.2915l0.2675,0.6686l-0.6879,0.2247
		l-0.5779-0.2341l-0.5779-0.2389l-0.5252-0.2243l-0.0479-0.024l-0.5638-0.2581l-0.5633-0.2624l-0.559-0.2722l-0.554-0.277
		l-0.0715-0.0385l-0.4683-0.2671l-0.5299-0.3155l-0.5299-0.315l-0.521-0.3296l-0.4298-0.2722l-0.0907-0.0621l-0.506-0.3484
		l-0.5017-0.3489l-0.5013-0.363l-0.4969-0.363l-0.3913-0.2962l-0.0959-0.0762l-0.482-0.3822l-0.4777-0.3866l-0.473-0.3917
		l-0.4679-0.3964l-0.4683-0.4062l-0.4585-0.4058l-0.1383-0.1194l-0.3202-0.2911l-0.4486-0.4203l-0.449-0.4251l-0.4443-0.4251
		l-0.4439-0.4302l-0.4156-0.4105l-0.024-0.0287l-0.4011-0.4726l-0.2102-0.2487l-0.1909-0.229l-0.3536-0.4203l-0.0432-0.0527
		l-0.0094-0.5826l0.5826-0.0094L138.7346,208.5924z"/>
	<path class="st3" d="M153.7073,211.5392l1.8338,1.7289l0.7307,0.6879l0.2055,0.1909l0.9315,0.8835l0.9357,0.8788l0.4824,0.449
		l0.4349,0.4439l0.2144,0.2102l0.6785,0.7119l0.0428,0.0475l0.8407,0.8835l0.0809,0.8309l-0.8356-0.0235l-0.9409-0.7786
		l-0.0527-0.0428l-0.7495-0.6447l-0.2247-0.2008l-0.4631-0.4203l-0.4679-0.4726l-0.9075-0.9173l-0.9028-0.9216l-0.2003-0.2003
		l-0.6926-0.726l-1.7435-1.8244l-0.0381-0.0334v-0.7692l0.7688-0.0047L153.7073,211.5392z"/>
	<path class="st3" d="M151.4292,201.1848l0.2911,0.0813l0.2915,0.086l0.2864,0.0954l0.2868,0.1006l0.2817,0.1049l0.2817,0.1096
		l0.282,0.1147l0.2722,0.1241l0.277,0.1293l0.2722,0.1335l0.2624,0.1383l0.2628,0.1481l0.2628,0.1532l0.2577,0.1524l0.2581,0.1627
		l0.253,0.1669l0.1862,0.1293l0.062,0.0428l0.2436,0.1768l0.2436,0.1768l0.2389,0.1862l0.2389,0.1909l0.2337,0.1909l0.2341,0.1961
		l0.0287,0.0287l0.1961,0.1768l0.2196,0.2097l0.2196,0.2102l0.2149,0.2149l0.2149,0.2149l0.2102,0.22l0.2102,0.2243l0.2055,0.2247
		l0.2003,0.229l0.2008,0.2294l0.3917,0.4679l0.3771,0.4777l0.2769,0.363l0.0908,0.1241l0.3536,0.4966l0.339,0.5013l0.3296,0.5064
		l0.3198,0.5111l0.3108,0.5158l0.3009,0.5158l0.1909,0.339l0.0907,0.1815l0.2577,0.5351l0.2483,0.5299l0.1532,0.3437l0.0809,0.1815
		l0.2247,0.5304l0.2196,0.5205l-0.2055,0.6639l-0.6494-0.2483l-0.2774-0.4824l-0.2817-0.4824l-0.1049-0.1674l-0.1909-0.3103
		l-0.3009-0.4824l-0.3108-0.4773l-0.1096-0.1627l-0.1961-0.3198l-0.3103-0.4871l-0.315-0.4824l-0.3296-0.473l-0.3343-0.4726
		l-0.3437-0.4632l-0.3536-0.4589l-0.0907-0.1096l-0.2676-0.339l-0.3677-0.449l-0.3771-0.4345l-0.1862-0.2102l-0.1961-0.2149
		l-0.1956-0.2055l-0.1961-0.2055l-0.2003-0.2055l-0.2007-0.1956l-0.2055-0.196l-0.2051-0.1956l-0.2101-0.1862l-0.1815-0.1622
		l-0.0287-0.024l-0.2055-0.1862l-0.2149-0.1866l-0.2102-0.1764l-0.2196-0.1768l-0.2149-0.1721l-0.22-0.1669l-0.0569-0.0432
		l-0.1674-0.1241l-0.2243-0.1622l-0.2247-0.1575l-0.229-0.1528l-0.2294-0.1528l-0.2342-0.1434l-0.229-0.1387h-0.0047l-0.2389-0.143
		l-0.2388-0.134l-0.2389-0.1288l-0.2436-0.1241l-0.2483-0.1194l-0.2483-0.1147l-0.253-0.11l-0.2581-0.1049l-0.2577-0.1002
		l-0.2581-0.0907l-0.0668-0.024l-0.1528-0.2436l-0.2817-0.5111l0.5107-0.2817l0.2726-0.1241L151.4292,201.1848z"/>
	<path class="st3" d="M162.8768,229.8691l-0.2102-0.2675l-0.0762-0.0955l-0.339-0.4345l-0.0907-0.1147l-0.3202-0.4204
		l-0.0667-0.0809l-0.3249-0.4636l-0.4011-0.5441l-0.2624-0.3489l-0.1434-0.1909l-0.4109-0.5445l-0.4105-0.5158l-0.0146-0.0193
		l0.0338-0.5826l0.5826,0.0381l0.4825,0.497l0.4819,0.5013l0.1674,0.1768l0.2962,0.3343l0.4585,0.5205l0.3771,0.449l0.0621,0.086
		l0.3202,0.4392l0.086,0.1241l0.3104,0.4777l0.0667,0.1096l0.1815,0.2962l0.1815,0.3009l-0.1241,0.6926l-0.6879-0.1481
		L162.8768,229.8691z"/>
	<path class="st3" d="M140.669,217.175l0.2003,0.1049l0.0813,0.0475l0.1434,0.0766l0.1194,0.11l0.2337,0.2102l0.2436,0.205
		l0.2436,0.2055l0.0621,0.0479l0.1819,0.1528l0.253,0.205l0.253,0.2008l0.1002,0.7213l-0.7209,0.1002l-0.0098-0.0094l-0.2577-0.1862
		l-0.2676-0.2008l-0.2003-0.1528l-0.0672-0.0527l-0.2577-0.2102l-0.2581-0.2149l-0.253-0.2243l-0.1241-0.1147l-0.1006-0.1383
		l-0.0522-0.086l-0.1194-0.2008l-0.0094-0.0094l-0.0098-0.5826l0.5826-0.0145L140.669,217.175z"/>
	<path class="st3" d="M137.3066,198.2047l0.3677,0.0146l0.2055,0.1481l0.4632,0.3198l0.1293,0.0907l0.3339,0.2389l0.4589,0.3249
		l0.3626,0.2483l0.5685,0.4011l0.9122,0.64l0.0193,0.0146l0.1674,0.9456l-0.9507,0.1622l-0.0188-0.0094l-0.9126-0.6447
		l-0.568-0.4062l-0.3583-0.2624l-0.4632-0.339l-0.3296-0.2487l-0.1288-0.0955l-0.449-0.3579l-0.2008-0.1627l-0.0621-0.1909
		l-0.0522-0.1575l-0.0052-0.0145l-0.0809-0.5779l0.5779-0.0813H137.3066z"/>
</g>
</svg>
