<svg version="1.1" id="Layer_1" xmlns="http://www.w3.org/2000/svg" xmlns:xlink="http://www.w3.org/1999/xlink" x="0px" y="0px" viewBox="0 0 100.25 100.25" style="enable-background:new 0 0 100.25 100.25;" xml:space="preserve">
<path d="M73.727,88.857c-3.956-1.926-7.272-4.33-10.072-6.99c1.978-2.154,6.44-7.459,8.21-13.282
	c2.899-9.54,0.386-16.877,0.277-17.186c-0.163-0.463-0.543-0.816-1.017-0.947c-0.473-0.131-0.98-0.021-1.357,0.293
	c-0.268,0.223-6.589,5.557-9.272,14.384c-1.254,4.125-1.239,8.792-0.967,12.193C50.85,66.213,49.192,52.914,48.898,49.318
	C51.837,48.346,54,45.187,54,41.441v-5.275l19.941-14.202c0.521-0.37,0.749-1.029,0.569-1.642c-0.179-0.613-0.727-1.045-1.364-1.078
	l-8.903-0.449l-0.949-9.472c-0.061-0.61-0.487-1.122-1.077-1.292c-0.586-0.169-1.223,0.036-1.6,0.521l-6.963,8.955l2.581-10.718
	c0.152-0.63-0.118-1.286-0.669-1.627c-0.552-0.341-1.26-0.289-1.755,0.128l-7.273,6.12l-6.689-6.082
	c-0.471-0.428-1.162-0.514-1.722-0.21c-0.56,0.303-0.868,0.926-0.769,1.555l1.727,10.888l-5.694-8.896
	c-0.344-0.538-0.99-0.798-1.612-0.65c-0.621,0.148-1.08,0.674-1.144,1.31l-0.949,9.472l-8.904,0.449
	c-0.638,0.032-1.186,0.465-1.364,1.079s0.051,1.273,0.572,1.643L40,36.168v5.273c0,4.08,2.566,7.463,5.907,8.081
	c0.207,2.518,1.026,9.252,4.051,16.884c-2.682-1.959-6.333-4.199-10.181-5.272c-9.606-2.677-16.881,0.006-17.186,0.123
	c-0.459,0.174-0.804,0.562-0.924,1.037c-0.119,0.477,0.002,0.981,0.325,1.351c0.229,0.263,5.708,6.458,14.595,8.937
	c2.493,0.694,5.17,0.928,7.646,0.928c3.877,0,7.252-0.572,8.656-0.848c3.928,7.141,10.033,14.272,19.525,18.894
	c0.211,0.103,0.435,0.151,0.655,0.151c0.556,0,1.09-0.31,1.35-0.844C74.781,90.118,74.472,89.219,73.727,88.857z M37.392,69.69
	c-5.188-1.446-9.155-4.368-11.315-6.257c2.682-0.521,7.365-0.949,12.894,0.591c4.257,1.187,8.4,4.096,10.883,6.087
	C46.699,70.532,41.649,70.878,37.392,69.69z M63.366,66.001c1.563-5.147,4.573-9.043,6.512-11.16
	c0.455,2.705,0.775,7.41-0.885,12.87c-1.285,4.229-4.291,8.305-6.339,10.74C62.308,75.292,62.077,70.24,63.366,66.001z
	 M31.125,21.726c0.741-0.037,1.343-0.61,1.417-1.349l0.648-6.463l7.237,11.308c0.383,0.598,1.133,0.847,1.796,0.593
	c0.664-0.252,1.06-0.936,0.948-1.637L40.99,10.419l4.5,4.092c0.556,0.506,1.4,0.521,1.975,0.038l4.784-4.026l-3.143,13.045
	c-0.165,0.687,0.171,1.396,0.808,1.703c0.635,0.304,1.4,0.126,1.835-0.431l8.933-11.487l0.704,7.023
	c0.073,0.738,0.676,1.312,1.417,1.349l5.884,0.297L51.77,34.071h-9.541L25.253,22.022L31.125,21.726z M43,41.441v-4.37h8v4.37
	c0,2.814-1.832,5.191-4,5.191S43,44.255,43,41.441z" id="id_102" style="fill: rgb(0, 0, 0);"></path>
</svg>